<?xml version="1.0" encoding="UTF-8" standalone="no"?><svg xmlns="http://www.w3.org/2000/svg" xmlns:xlink="http://www.w3.org/1999/xlink" contentScriptType="application/ecmascript" contentStyleType="text/css" height="558px" preserveAspectRatio="none" style="width:632px;height:558px;" version="1.1" viewBox="0 0 632 558" width="632px" zoomAndPan="magnify"><defs><filter height="300%" id="fde2ofewcdv1e" width="300%" x="-1" y="-1"><feGaussianBlur result="blurOut" stdDeviation="2.0"/><feColorMatrix in="blurOut" result="blurOut2" type="matrix" values="0 0 0 0 0 0 0 0 0 0 0 0 0 0 0 0 0 0 .4 0"/><feOffset dx="4.0" dy="4.0" in="blurOut2" result="blurOut3"/><feBlend in="SourceGraphic" in2="blurOut3" mode="normal"/></filter></defs><g><!--MD5=[3199a0830ff6a35e63bfb10e93fa6d35]
class Macowins--><rect codeLine="53" fill="#FEFECE" filter="url(#fde2ofewcdv1e)" height="86.4141" id="Macowins" style="stroke:#A80036;stroke-width:1.5;" width="158" x="310" y="7"/><ellipse cx="355.25" cy="23" fill="#ADD1B2" rx="11" ry="11" style="stroke:#A80036;stroke-width:1.0;"/><path d="M357.5938,18.6719 C356.6563,18.2344 356.0625,18.0938 355.1875,18.0938 C352.5625,18.0938 350.5625,20.1719 350.5625,22.8906 L350.5625,24.0156 C350.5625,26.5938 352.6719,28.4844 355.5625,28.4844 C356.7813,28.4844 357.9375,28.1875 358.6875,27.6406 C359.2656,27.2344 359.5938,26.7813 359.5938,26.3906 C359.5938,25.9375 359.2031,25.5469 358.7344,25.5469 C358.5156,25.5469 358.3125,25.625 358.125,25.8125 C357.6719,26.2969 357.6719,26.2969 357.4844,26.3906 C357.0625,26.6563 356.375,26.7813 355.6094,26.7813 C353.5625,26.7813 352.2656,25.6875 352.2656,23.9844 L352.2656,22.8906 C352.2656,21.1094 353.5156,19.7969 355.25,19.7969 C355.8281,19.7969 356.4375,19.9531 356.9063,20.2031 C357.3906,20.4844 357.5625,20.7031 357.6563,21.1094 C357.7188,21.5156 357.75,21.6406 357.8906,21.7656 C358.0313,21.9063 358.2656,22.0156 358.4844,22.0156 C358.75,22.0156 359.0156,21.875 359.1875,21.6563 C359.2969,21.5 359.3281,21.3125 359.3281,20.8906 L359.3281,19.4688 C359.3281,19.0313 359.3125,18.9063 359.2188,18.75 C359.0625,18.4844 358.7813,18.3438 358.4844,18.3438 C358.1875,18.3438 357.9844,18.4375 357.7656,18.75 L357.5938,18.6719 Z " fill="#000000"/><text fill="#000000" font-family="sans-serif" font-size="12" lengthAdjust="spacing" textLength="59" x="375.75" y="27.1543">Macowins</text><line style="stroke:#A80036;stroke-width:1.5;" x1="311" x2="467" y1="39" y2="39"/><text fill="#000000" font-family="sans-serif" font-size="11" lengthAdjust="spacing" textLength="42" x="316" y="53.2104">ventas,</text><line style="stroke:#A80036;stroke-width:1.5;" x1="311" x2="467" y1="59.8047" y2="59.8047"/><text fill="#000000" font-family="sans-serif" font-size="11" lengthAdjust="spacing" textLength="81" x="316" y="74.0151">cargarVenta ()</text><text fill="#000000" font-family="sans-serif" font-size="11" lengthAdjust="spacing" textLength="146" x="316" y="86.8198">calcularGanancias (fecha)</text><!--MD5=[fe4478d9c9a369b28097141e000aa656]
class Venta--><rect codeLine="44" fill="#FEFECE" filter="url(#fde2ofewcdv1e)" height="99.2188" id="Venta" style="stroke:#A80036;stroke-width:1.5;" width="111" x="333.5" y="153"/><ellipse cx="368.75" cy="169" fill="#ADD1B2" rx="11" ry="11" style="stroke:#A80036;stroke-width:1.0;"/><path d="M371.0938,164.6719 C370.1563,164.2344 369.5625,164.0938 368.6875,164.0938 C366.0625,164.0938 364.0625,166.1719 364.0625,168.8906 L364.0625,170.0156 C364.0625,172.5938 366.1719,174.4844 369.0625,174.4844 C370.2813,174.4844 371.4375,174.1875 372.1875,173.6406 C372.7656,173.2344 373.0938,172.7813 373.0938,172.3906 C373.0938,171.9375 372.7031,171.5469 372.2344,171.5469 C372.0156,171.5469 371.8125,171.625 371.625,171.8125 C371.1719,172.2969 371.1719,172.2969 370.9844,172.3906 C370.5625,172.6563 369.875,172.7813 369.1094,172.7813 C367.0625,172.7813 365.7656,171.6875 365.7656,169.9844 L365.7656,168.8906 C365.7656,167.1094 367.0156,165.7969 368.75,165.7969 C369.3281,165.7969 369.9375,165.9531 370.4063,166.2031 C370.8906,166.4844 371.0625,166.7031 371.1563,167.1094 C371.2188,167.5156 371.25,167.6406 371.3906,167.7656 C371.5313,167.9063 371.7656,168.0156 371.9844,168.0156 C372.25,168.0156 372.5156,167.875 372.6875,167.6563 C372.7969,167.5 372.8281,167.3125 372.8281,166.8906 L372.8281,165.4688 C372.8281,165.0313 372.8125,164.9063 372.7188,164.75 C372.5625,164.4844 372.2813,164.3438 371.9844,164.3438 C371.6875,164.3438 371.4844,164.4375 371.2656,164.75 L371.0938,164.6719 Z " fill="#000000"/><text fill="#000000" font-family="sans-serif" font-size="12" lengthAdjust="spacing" textLength="34" x="387.25" y="173.1543">Venta</text><line style="stroke:#A80036;stroke-width:1.5;" x1="334.5" x2="443.5" y1="185" y2="185"/><text fill="#000000" font-family="sans-serif" font-size="11" lengthAdjust="spacing" textLength="49" x="339.5" y="199.2104">prendas,</text><text fill="#000000" font-family="sans-serif" font-size="11" lengthAdjust="spacing" textLength="63" x="339.5" y="212.0151">formaPago,</text><text fill="#000000" font-family="sans-serif" font-size="11" lengthAdjust="spacing" textLength="69" x="339.5" y="224.8198">fechaVenta,</text><line style="stroke:#A80036;stroke-width:1.5;" x1="334.5" x2="443.5" y1="231.4141" y2="231.4141"/><text fill="#000000" font-family="sans-serif" font-size="11" lengthAdjust="spacing" textLength="99" x="339.5" y="245.6245">calcularImporte ()</text><!--MD5=[e73183ae97ca62d81f0bf19921e7c95e]
class Prenda--><rect codeLine="25" fill="#FEFECE" filter="url(#fde2ofewcdv1e)" height="112.0234" id="Prenda" style="stroke:#A80036;stroke-width:1.5;" width="101" x="173.5" y="312"/><ellipse cx="201.1" cy="328" fill="#ADD1B2" rx="11" ry="11" style="stroke:#A80036;stroke-width:1.0;"/><path d="M203.4438,323.6719 C202.5063,323.2344 201.9125,323.0938 201.0375,323.0938 C198.4125,323.0938 196.4125,325.1719 196.4125,327.8906 L196.4125,329.0156 C196.4125,331.5938 198.5219,333.4844 201.4125,333.4844 C202.6313,333.4844 203.7875,333.1875 204.5375,332.6406 C205.1156,332.2344 205.4438,331.7813 205.4438,331.3906 C205.4438,330.9375 205.0531,330.5469 204.5844,330.5469 C204.3656,330.5469 204.1625,330.625 203.975,330.8125 C203.5219,331.2969 203.5219,331.2969 203.3344,331.3906 C202.9125,331.6563 202.225,331.7813 201.4594,331.7813 C199.4125,331.7813 198.1156,330.6875 198.1156,328.9844 L198.1156,327.8906 C198.1156,326.1094 199.3656,324.7969 201.1,324.7969 C201.6781,324.7969 202.2875,324.9531 202.7563,325.2031 C203.2406,325.4844 203.4125,325.7031 203.5063,326.1094 C203.5688,326.5156 203.6,326.6406 203.7406,326.7656 C203.8813,326.9063 204.1156,327.0156 204.3344,327.0156 C204.6,327.0156 204.8656,326.875 205.0375,326.6563 C205.1469,326.5 205.1781,326.3125 205.1781,325.8906 L205.1781,324.4688 C205.1781,324.0313 205.1625,323.9063 205.0688,323.75 C204.9125,323.4844 204.6313,323.3438 204.3344,323.3438 C204.0375,323.3438 203.8344,323.4375 203.6156,323.75 L203.4438,323.6719 Z " fill="#000000"/><text fill="#000000" font-family="sans-serif" font-size="12" lengthAdjust="spacing" textLength="41" x="217.9" y="332.1543">Prenda</text><line style="stroke:#A80036;stroke-width:1.5;" x1="174.5" x2="273.5" y1="344" y2="344"/><text fill="#000000" font-family="sans-serif" font-size="11" lengthAdjust="spacing" textLength="67" x="179.5" y="358.2104">precioBase,</text><text fill="#000000" font-family="sans-serif" font-size="11" lengthAdjust="spacing" textLength="51" x="179.5" y="371.0151">cantidad,</text><text fill="#000000" font-family="sans-serif" font-size="11" lengthAdjust="spacing" textLength="24" x="179.5" y="383.8198">tipo,</text><text fill="#000000" font-family="sans-serif" font-size="11" lengthAdjust="spacing" textLength="42" x="179.5" y="396.6245">estado,</text><line style="stroke:#A80036;stroke-width:1.5;" x1="174.5" x2="273.5" y1="403.2188" y2="403.2188"/><text fill="#000000" font-family="sans-serif" font-size="11" lengthAdjust="spacing" textLength="89" x="179.5" y="417.4292">calcularPrecio ()</text><!--MD5=[4dcd44048f1d3c6188760d5889af0888]
class VentaTarjeta--><rect codeLine="34" fill="#FEFECE" filter="url(#fde2ofewcdv1e)" height="73.6094" id="VentaTarjeta" style="stroke:#A80036;stroke-width:1.5;" width="159" x="309.5" y="331"/><ellipse cx="347.9" cy="347" fill="#ADD1B2" rx="11" ry="11" style="stroke:#A80036;stroke-width:1.0;"/><path d="M350.2438,342.6719 C349.3063,342.2344 348.7125,342.0938 347.8375,342.0938 C345.2125,342.0938 343.2125,344.1719 343.2125,346.8906 L343.2125,348.0156 C343.2125,350.5938 345.3219,352.4844 348.2125,352.4844 C349.4313,352.4844 350.5875,352.1875 351.3375,351.6406 C351.9156,351.2344 352.2438,350.7813 352.2438,350.3906 C352.2438,349.9375 351.8531,349.5469 351.3844,349.5469 C351.1656,349.5469 350.9625,349.625 350.775,349.8125 C350.3219,350.2969 350.3219,350.2969 350.1344,350.3906 C349.7125,350.6563 349.025,350.7813 348.2594,350.7813 C346.2125,350.7813 344.9156,349.6875 344.9156,347.9844 L344.9156,346.8906 C344.9156,345.1094 346.1656,343.7969 347.9,343.7969 C348.4781,343.7969 349.0875,343.9531 349.5563,344.2031 C350.0406,344.4844 350.2125,344.7031 350.3063,345.1094 C350.3688,345.5156 350.4,345.6406 350.5406,345.7656 C350.6813,345.9063 350.9156,346.0156 351.1344,346.0156 C351.4,346.0156 351.6656,345.875 351.8375,345.6563 C351.9469,345.5 351.9781,345.3125 351.9781,344.8906 L351.9781,343.4688 C351.9781,343.0313 351.9625,342.9063 351.8688,342.75 C351.7125,342.4844 351.4313,342.3438 351.1344,342.3438 C350.8375,342.3438 350.6344,342.4375 350.4156,342.75 L350.2438,342.6719 Z " fill="#000000"/><text fill="#000000" font-family="sans-serif" font-size="12" lengthAdjust="spacing" textLength="75" x="367.1" y="351.1543">VentaTarjeta</text><line style="stroke:#A80036;stroke-width:1.5;" x1="310.5" x2="467.5" y1="363" y2="363"/><text fill="#000000" font-family="sans-serif" font-size="11" lengthAdjust="spacing" textLength="66" x="315.5" y="377.2104">cantCuotas,</text><line style="stroke:#A80036;stroke-width:1.5;" x1="310.5" x2="467.5" y1="383.8047" y2="383.8047"/><text fill="#000000" font-family="sans-serif" font-size="11" lengthAdjust="spacing" textLength="147" x="315.5" y="398.0151">calcularRecargo (prendas)</text><!--MD5=[c31b78c26b0557b0721544f0986aa0be]
class VentaEfectivo--><rect codeLine="40" fill="#FEFECE" filter="url(#fde2ofewcdv1e)" height="60.8047" id="VentaEfectivo" style="stroke:#A80036;stroke-width:1.5;" width="114" x="504" y="337.5"/><ellipse cx="519" cy="353.5" fill="#ADD1B2" rx="11" ry="11" style="stroke:#A80036;stroke-width:1.0;"/><path d="M521.3438,349.1719 C520.4063,348.7344 519.8125,348.5938 518.9375,348.5938 C516.3125,348.5938 514.3125,350.6719 514.3125,353.3906 L514.3125,354.5156 C514.3125,357.0938 516.4219,358.9844 519.3125,358.9844 C520.5313,358.9844 521.6875,358.6875 522.4375,358.1406 C523.0156,357.7344 523.3438,357.2813 523.3438,356.8906 C523.3438,356.4375 522.9531,356.0469 522.4844,356.0469 C522.2656,356.0469 522.0625,356.125 521.875,356.3125 C521.4219,356.7969 521.4219,356.7969 521.2344,356.8906 C520.8125,357.1563 520.125,357.2813 519.3594,357.2813 C517.3125,357.2813 516.0156,356.1875 516.0156,354.4844 L516.0156,353.3906 C516.0156,351.6094 517.2656,350.2969 519,350.2969 C519.5781,350.2969 520.1875,350.4531 520.6563,350.7031 C521.1406,350.9844 521.3125,351.2031 521.4063,351.6094 C521.4688,352.0156 521.5,352.1406 521.6406,352.2656 C521.7813,352.4063 522.0156,352.5156 522.2344,352.5156 C522.5,352.5156 522.7656,352.375 522.9375,352.1563 C523.0469,352 523.0781,351.8125 523.0781,351.3906 L523.0781,349.9688 C523.0781,349.5313 523.0625,349.4063 522.9688,349.25 C522.8125,348.9844 522.5313,348.8438 522.2344,348.8438 C521.9375,348.8438 521.7344,348.9375 521.5156,349.25 L521.3438,349.1719 Z " fill="#000000"/><text fill="#000000" font-family="sans-serif" font-size="12" lengthAdjust="spacing" textLength="82" x="533" y="357.6543">VentaEfectivo</text><line style="stroke:#A80036;stroke-width:1.5;" x1="505" x2="617" y1="369.5" y2="369.5"/><line style="stroke:#A80036;stroke-width:1.5;" x1="505" x2="617" y1="377.5" y2="377.5"/><text fill="#000000" font-family="sans-serif" font-size="11" lengthAdjust="spacing" textLength="101" x="510" y="391.7104">calcularRecargo ()</text><!--MD5=[256cafe7dbdbf7891ac9191609210c86]
class PrendaNueva--><rect codeLine="13" fill="#FEFECE" filter="url(#fde2ofewcdv1e)" height="60.8047" id="PrendaNueva" style="stroke:#A80036;stroke-width:1.5;" width="110" x="7" y="484"/><ellipse cx="22" cy="500" fill="#ADD1B2" rx="11" ry="11" style="stroke:#A80036;stroke-width:1.0;"/><path d="M24.3438,495.6719 C23.4063,495.2344 22.8125,495.0938 21.9375,495.0938 C19.3125,495.0938 17.3125,497.1719 17.3125,499.8906 L17.3125,501.0156 C17.3125,503.5938 19.4219,505.4844 22.3125,505.4844 C23.5313,505.4844 24.6875,505.1875 25.4375,504.6406 C26.0156,504.2344 26.3438,503.7813 26.3438,503.3906 C26.3438,502.9375 25.9531,502.5469 25.4844,502.5469 C25.2656,502.5469 25.0625,502.625 24.875,502.8125 C24.4219,503.2969 24.4219,503.2969 24.2344,503.3906 C23.8125,503.6563 23.125,503.7813 22.3594,503.7813 C20.3125,503.7813 19.0156,502.6875 19.0156,500.9844 L19.0156,499.8906 C19.0156,498.1094 20.2656,496.7969 22,496.7969 C22.5781,496.7969 23.1875,496.9531 23.6563,497.2031 C24.1406,497.4844 24.3125,497.7031 24.4063,498.1094 C24.4688,498.5156 24.5,498.6406 24.6406,498.7656 C24.7813,498.9063 25.0156,499.0156 25.2344,499.0156 C25.5,499.0156 25.7656,498.875 25.9375,498.6563 C26.0469,498.5 26.0781,498.3125 26.0781,497.8906 L26.0781,496.4688 C26.0781,496.0313 26.0625,495.9063 25.9688,495.75 C25.8125,495.4844 25.5313,495.3438 25.2344,495.3438 C24.9375,495.3438 24.7344,495.4375 24.5156,495.75 L24.3438,495.6719 Z " fill="#000000"/><text fill="#000000" font-family="sans-serif" font-size="12" lengthAdjust="spacing" textLength="78" x="36" y="504.1543">PrendaNueva</text><line style="stroke:#A80036;stroke-width:1.5;" x1="8" x2="116" y1="516" y2="516"/><line style="stroke:#A80036;stroke-width:1.5;" x1="8" x2="116" y1="524" y2="524"/><text fill="#000000" font-family="sans-serif" font-size="11" lengthAdjust="spacing" textLength="84" x="13" y="538.2104">calcularDesc ()</text><!--MD5=[77d7b7e9f1d39a5dae790c35a9a77677]
class PrendaPromo--><rect codeLine="17" fill="#FEFECE" filter="url(#fde2ofewcdv1e)" height="60.8047" id="PrendaPromo" style="stroke:#A80036;stroke-width:1.5;" width="143" x="152.5" y="484"/><ellipse cx="181.9" cy="500" fill="#ADD1B2" rx="11" ry="11" style="stroke:#A80036;stroke-width:1.0;"/><path d="M184.2438,495.6719 C183.3063,495.2344 182.7125,495.0938 181.8375,495.0938 C179.2125,495.0938 177.2125,497.1719 177.2125,499.8906 L177.2125,501.0156 C177.2125,503.5938 179.3219,505.4844 182.2125,505.4844 C183.4313,505.4844 184.5875,505.1875 185.3375,504.6406 C185.9156,504.2344 186.2438,503.7813 186.2438,503.3906 C186.2438,502.9375 185.8531,502.5469 185.3844,502.5469 C185.1656,502.5469 184.9625,502.625 184.775,502.8125 C184.3219,503.2969 184.3219,503.2969 184.1344,503.3906 C183.7125,503.6563 183.025,503.7813 182.2594,503.7813 C180.2125,503.7813 178.9156,502.6875 178.9156,500.9844 L178.9156,499.8906 C178.9156,498.1094 180.1656,496.7969 181.9,496.7969 C182.4781,496.7969 183.0875,496.9531 183.5563,497.2031 C184.0406,497.4844 184.2125,497.7031 184.3063,498.1094 C184.3688,498.5156 184.4,498.6406 184.5406,498.7656 C184.6813,498.9063 184.9156,499.0156 185.1344,499.0156 C185.4,499.0156 185.6656,498.875 185.8375,498.6563 C185.9469,498.5 185.9781,498.3125 185.9781,497.8906 L185.9781,496.4688 C185.9781,496.0313 185.9625,495.9063 185.8688,495.75 C185.7125,495.4844 185.4313,495.3438 185.1344,495.3438 C184.8375,495.3438 184.6344,495.4375 184.4156,495.75 L184.2438,495.6719 Z " fill="#000000"/><text fill="#000000" font-family="sans-serif" font-size="12" lengthAdjust="spacing" textLength="79" x="199.1" y="504.1543">PrendaPromo</text><line style="stroke:#A80036;stroke-width:1.5;" x1="153.5" x2="294.5" y1="516" y2="516"/><line style="stroke:#A80036;stroke-width:1.5;" x1="153.5" x2="294.5" y1="524" y2="524"/><text fill="#000000" font-family="sans-serif" font-size="11" lengthAdjust="spacing" textLength="131" x="158.5" y="538.2104">calcularDesc (valorFijo)</text><!--MD5=[97a131056d5174639eac1525f27e1919]
class PrendaLiquidacion--><rect codeLine="21" fill="#FEFECE" filter="url(#fde2ofewcdv1e)" height="60.8047" id="PrendaLiquidacion" style="stroke:#A80036;stroke-width:1.5;" width="140" x="331" y="484"/><ellipse cx="346" cy="500" fill="#ADD1B2" rx="11" ry="11" style="stroke:#A80036;stroke-width:1.0;"/><path d="M348.3438,495.6719 C347.4063,495.2344 346.8125,495.0938 345.9375,495.0938 C343.3125,495.0938 341.3125,497.1719 341.3125,499.8906 L341.3125,501.0156 C341.3125,503.5938 343.4219,505.4844 346.3125,505.4844 C347.5313,505.4844 348.6875,505.1875 349.4375,504.6406 C350.0156,504.2344 350.3438,503.7813 350.3438,503.3906 C350.3438,502.9375 349.9531,502.5469 349.4844,502.5469 C349.2656,502.5469 349.0625,502.625 348.875,502.8125 C348.4219,503.2969 348.4219,503.2969 348.2344,503.3906 C347.8125,503.6563 347.125,503.7813 346.3594,503.7813 C344.3125,503.7813 343.0156,502.6875 343.0156,500.9844 L343.0156,499.8906 C343.0156,498.1094 344.2656,496.7969 346,496.7969 C346.5781,496.7969 347.1875,496.9531 347.6563,497.2031 C348.1406,497.4844 348.3125,497.7031 348.4063,498.1094 C348.4688,498.5156 348.5,498.6406 348.6406,498.7656 C348.7813,498.9063 349.0156,499.0156 349.2344,499.0156 C349.5,499.0156 349.7656,498.875 349.9375,498.6563 C350.0469,498.5 350.0781,498.3125 350.0781,497.8906 L350.0781,496.4688 C350.0781,496.0313 350.0625,495.9063 349.9688,495.75 C349.8125,495.4844 349.5313,495.3438 349.2344,495.3438 C348.9375,495.3438 348.7344,495.4375 348.5156,495.75 L348.3438,495.6719 Z " fill="#000000"/><text fill="#000000" font-family="sans-serif" font-size="12" lengthAdjust="spacing" textLength="108" x="360" y="504.1543">PrendaLiquidacion</text><line style="stroke:#A80036;stroke-width:1.5;" x1="332" x2="470" y1="516" y2="516"/><line style="stroke:#A80036;stroke-width:1.5;" x1="332" x2="470" y1="524" y2="524"/><text fill="#000000" font-family="sans-serif" font-size="11" lengthAdjust="spacing" textLength="84" x="337" y="538.2104">calcularDesc ()</text><!--MD5=[b2702ab3fd3e938b833384698e6e32ad]
link Macowins to Venta--><path codeLine="1" d="M389,93.323 C389,110.25 389,129.946 389,147.858 " fill="none" id="Macowins-to-Venta" style="stroke:#A80036;stroke-width:1.0;"/><polygon fill="#A80036" points="389,152.859,393,143.859,389,147.859,385,143.859,389,152.859" style="stroke:#A80036;stroke-width:1.0;"/><!--MD5=[233e03477ff777c95c2f0fa1705e80b8]
link Venta to Prenda--><path codeLine="3" d="M339.941,252.113 C320.616,271.263 298.343,293.333 278.517,312.979 " fill="none" id="Venta-to-Prenda" style="stroke:#A80036;stroke-width:1.0;"/><polygon fill="#A80036" points="274.585,316.874,283.793,313.3794,278.1362,313.3542,278.1614,307.6974,274.585,316.874" style="stroke:#A80036;stroke-width:1.0;"/><!--MD5=[a27194e573f73ec697c08b548b4d9b6b]
reverse link Venta to VentaTarjeta--><path codeLine="5" d="M389,272.426 C389,292.486 389,313.602 389,330.781 " fill="none" id="Venta-backto-VentaTarjeta" style="stroke:#A80036;stroke-width:1.0;"/><polygon fill="none" points="382,272.113,389,252.113,396,272.113,382,272.113" style="stroke:#A80036;stroke-width:1.0;"/><!--MD5=[b21853c7b0b6c2adbaffad0a3b268d3c]
reverse link Venta to VentaEfectivo--><path codeLine="6" d="M454.912,266.155 C480.627,290.599 508.881,317.456 529.76,337.304 " fill="none" id="Venta-backto-VentaEfectivo" style="stroke:#A80036;stroke-width:1.0;"/><polygon fill="none" points="449.813,270.966,440.14,252.113,459.459,260.819,449.813,270.966" style="stroke:#A80036;stroke-width:1.0;"/><!--MD5=[1a6a386f4bec6c2e115a00233412f801]
reverse link Prenda to PrendaNueva--><path codeLine="8" d="M158.164,427.724 C136.535,447.0167 113.41,467.6438 95.2582,483.8345 " fill="none" id="Prenda-backto-PrendaNueva" style="stroke:#A80036;stroke-width:1.0;"/><polygon fill="none" points="153.602,422.413,173.187,414.324,162.921,432.861,153.602,422.413" style="stroke:#A80036;stroke-width:1.0;"/><!--MD5=[775874e0e4dbcf781f44fc7433c27710]
reverse link Prenda to PrendaPromo--><path codeLine="9" d="M224,444.359 C224,458.3168 224,472.1197 224,483.6786 " fill="none" id="Prenda-backto-PrendaPromo" style="stroke:#A80036;stroke-width:1.0;"/><polygon fill="none" points="217,444.042,224,424.041,231,444.041,217,444.042" style="stroke:#A80036;stroke-width:1.0;"/><!--MD5=[563fe8154468868fa98ce35db5b2125f]
reverse link Prenda to PrendaLiquidacion--><path codeLine="10" d="M290.378,423.19 C315.526,443.721 343.221,466.3305 364.61,483.7914 " fill="none" id="Prenda-backto-PrendaLiquidacion" style="stroke:#A80036;stroke-width:1.0;"/><polygon fill="none" points="285.787,428.478,274.721,410.408,294.641,417.634,285.787,428.478" style="stroke:#A80036;stroke-width:1.0;"/><!--MD5=[cb43f9581fc6af26b3c9bd3d80f58797]
@startuml
Macowins - -> Venta

Venta - -> Prenda

Venta <|- - VentaTarjeta
Venta <|- - VentaEfectivo

Prenda <|- - PrendaNueva
Prenda <|- - PrendaPromo
Prenda <|- - PrendaLiquidacion


class PrendaNueva {
  calcularDesc ()
}

class PrendaPromo {
  calcularDesc (valorFijo)
}

class PrendaLiquidacion {
  calcularDesc ()
}

class Prenda {
  precioBase,
  cantidad,
  tipo,
  estado, 

  calcularPrecio ()
}

class VentaTarjeta {
   cantCuotas,

   calcularRecargo (prendas)
}

class VentaEfectivo {
   calcularRecargo ()
}

class Venta {
  prendas,
  formaPago,
  fechaVenta,
 
  calcularImporte ()
 
}

class Macowins {
  ventas,   
  
  cargarVenta ()
  calcularGanancias (fecha)
}
@enduml

PlantUML version 1.2021.5beta3(Unknown compile time)
(GPL source distribution)
Java Runtime: Java(TM) SE Runtime Environment
JVM: Java HotSpot(TM) 64-Bit Server VM
Default Encoding: UTF-8
Language: en
Country: US
--></g></svg>