<?xml version="1.0" encoding="UTF-8" standalone="no"?><svg xmlns="http://www.w3.org/2000/svg" xmlns:xlink="http://www.w3.org/1999/xlink" contentScriptType="application/ecmascript" contentStyleType="text/css" height="425px" preserveAspectRatio="none" style="width:585px;height:425px;" version="1.1" viewBox="0 0 585 425" width="585px" zoomAndPan="magnify"><defs><filter height="300%" id="f16hgghef9q5nw" width="300%" x="-1" y="-1"><feGaussianBlur result="blurOut" stdDeviation="2.0"/><feColorMatrix in="blurOut" result="blurOut2" type="matrix" values="0 0 0 0 0 0 0 0 0 0 0 0 0 0 0 0 0 0 .4 0"/><feOffset dx="4.0" dy="4.0" in="blurOut2" result="blurOut3"/><feBlend in="SourceGraphic" in2="blurOut3" mode="normal"/></filter></defs><g><!--MD5=[fe4478d9c9a369b28097141e000aa656]
class Venta--><rect codeLine="45" fill="#FEFECE" filter="url(#f16hgghef9q5nw)" height="99.2188" id="Venta" style="stroke:#A80036;stroke-width:1.5;" width="179" x="270.5" y="7"/><ellipse cx="338.75" cy="23" fill="#ADD1B2" rx="11" ry="11" style="stroke:#A80036;stroke-width:1.0;"/><path d="M341.0938,18.6719 C340.1563,18.2344 339.5625,18.0938 338.6875,18.0938 C336.0625,18.0938 334.0625,20.1719 334.0625,22.8906 L334.0625,24.0156 C334.0625,26.5938 336.1719,28.4844 339.0625,28.4844 C340.2813,28.4844 341.4375,28.1875 342.1875,27.6406 C342.7656,27.2344 343.0938,26.7813 343.0938,26.3906 C343.0938,25.9375 342.7031,25.5469 342.2344,25.5469 C342.0156,25.5469 341.8125,25.625 341.625,25.8125 C341.1719,26.2969 341.1719,26.2969 340.9844,26.3906 C340.5625,26.6563 339.875,26.7813 339.1094,26.7813 C337.0625,26.7813 335.7656,25.6875 335.7656,23.9844 L335.7656,22.8906 C335.7656,21.1094 337.0156,19.7969 338.75,19.7969 C339.3281,19.7969 339.9375,19.9531 340.4063,20.2031 C340.8906,20.4844 341.0625,20.7031 341.1563,21.1094 C341.2188,21.5156 341.25,21.6406 341.3906,21.7656 C341.5313,21.9063 341.7656,22.0156 341.9844,22.0156 C342.25,22.0156 342.5156,21.875 342.6875,21.6563 C342.7969,21.5 342.8281,21.3125 342.8281,20.8906 L342.8281,19.4688 C342.8281,19.0313 342.8125,18.9063 342.7188,18.75 C342.5625,18.4844 342.2813,18.3438 341.9844,18.3438 C341.6875,18.3438 341.4844,18.4375 341.2656,18.75 L341.0938,18.6719 Z " fill="#000000"/><text fill="#000000" font-family="sans-serif" font-size="12" lengthAdjust="spacing" textLength="34" x="359.25" y="27.1543">Venta</text><line style="stroke:#A80036;stroke-width:1.5;" x1="271.5" x2="448.5" y1="39" y2="39"/><text fill="#000000" font-family="sans-serif" font-size="11" lengthAdjust="spacing" textLength="167" x="276.5" y="53.2104">arraylist &lt;Prenda&gt; prendas[],</text><text fill="#000000" font-family="sans-serif" font-size="11" lengthAdjust="spacing" textLength="85" x="276.5" y="66.0151">var formaPago,</text><text fill="#000000" font-family="sans-serif" font-size="11" lengthAdjust="spacing" textLength="101" x="276.5" y="78.8198">Date fechaVenta,</text><line style="stroke:#A80036;stroke-width:1.5;" x1="271.5" x2="448.5" y1="85.4141" y2="85.4141"/><text fill="#000000" font-family="sans-serif" font-size="11" lengthAdjust="spacing" textLength="66" x="276.5" y="99.6245">valorFinal ()</text><!--MD5=[e73183ae97ca62d81f0bf19921e7c95e]
class Prenda--><rect codeLine="26" fill="#FEFECE" filter="url(#f16hgghef9q5nw)" height="112.0234" id="Prenda" style="stroke:#A80036;stroke-width:1.5;" width="110" x="153" y="166"/><ellipse cx="184.65" cy="182" fill="#ADD1B2" rx="11" ry="11" style="stroke:#A80036;stroke-width:1.0;"/><path d="M186.9938,177.6719 C186.0563,177.2344 185.4625,177.0938 184.5875,177.0938 C181.9625,177.0938 179.9625,179.1719 179.9625,181.8906 L179.9625,183.0156 C179.9625,185.5938 182.0719,187.4844 184.9625,187.4844 C186.1813,187.4844 187.3375,187.1875 188.0875,186.6406 C188.6656,186.2344 188.9938,185.7813 188.9938,185.3906 C188.9938,184.9375 188.6031,184.5469 188.1344,184.5469 C187.9156,184.5469 187.7125,184.625 187.525,184.8125 C187.0719,185.2969 187.0719,185.2969 186.8844,185.3906 C186.4625,185.6563 185.775,185.7813 185.0094,185.7813 C182.9625,185.7813 181.6656,184.6875 181.6656,182.9844 L181.6656,181.8906 C181.6656,180.1094 182.9156,178.7969 184.65,178.7969 C185.2281,178.7969 185.8375,178.9531 186.3063,179.2031 C186.7906,179.4844 186.9625,179.7031 187.0563,180.1094 C187.1188,180.5156 187.15,180.6406 187.2906,180.7656 C187.4313,180.9063 187.6656,181.0156 187.8844,181.0156 C188.15,181.0156 188.4156,180.875 188.5875,180.6563 C188.6969,180.5 188.7281,180.3125 188.7281,179.8906 L188.7281,178.4688 C188.7281,178.0313 188.7125,177.9063 188.6188,177.75 C188.4625,177.4844 188.1813,177.3438 187.8844,177.3438 C187.5875,177.3438 187.3844,177.4375 187.1656,177.75 L186.9938,177.6719 Z " fill="#000000"/><text fill="#000000" font-family="sans-serif" font-size="12" lengthAdjust="spacing" textLength="41" x="202.35" y="186.1543">Prenda</text><line style="stroke:#A80036;stroke-width:1.5;" x1="154" x2="262" y1="198" y2="198"/><text fill="#000000" font-family="sans-serif" font-size="11" lengthAdjust="spacing" textLength="98" x="159" y="212.2104">Float precioBase,</text><text fill="#000000" font-family="sans-serif" font-size="11" lengthAdjust="spacing" textLength="96" x="159" y="225.0151">Integer cantidad,</text><text fill="#000000" font-family="sans-serif" font-size="11" lengthAdjust="spacing" textLength="61" x="159" y="237.8198">String tipo,</text><text fill="#000000" font-family="sans-serif" font-size="11" lengthAdjust="spacing" textLength="64" x="159" y="250.6245">var estado,</text><line style="stroke:#A80036;stroke-width:1.5;" x1="154" x2="262" y1="257.2188" y2="257.2188"/><text fill="#000000" font-family="sans-serif" font-size="11" lengthAdjust="spacing" textLength="47" x="159" y="271.4292">precio ()</text><!--MD5=[4dcd44048f1d3c6188760d5889af0888]
class VentaTarjeta--><rect codeLine="35" fill="#FEFECE" filter="url(#f16hgghef9q5nw)" height="73.6094" id="VentaTarjeta" style="stroke:#A80036;stroke-width:1.5;" width="123" x="298.5" y="185"/><ellipse cx="320.7" cy="201" fill="#ADD1B2" rx="11" ry="11" style="stroke:#A80036;stroke-width:1.0;"/><path d="M323.0438,196.6719 C322.1063,196.2344 321.5125,196.0938 320.6375,196.0938 C318.0125,196.0938 316.0125,198.1719 316.0125,200.8906 L316.0125,202.0156 C316.0125,204.5938 318.1219,206.4844 321.0125,206.4844 C322.2313,206.4844 323.3875,206.1875 324.1375,205.6406 C324.7156,205.2344 325.0438,204.7813 325.0438,204.3906 C325.0438,203.9375 324.6531,203.5469 324.1844,203.5469 C323.9656,203.5469 323.7625,203.625 323.575,203.8125 C323.1219,204.2969 323.1219,204.2969 322.9344,204.3906 C322.5125,204.6563 321.825,204.7813 321.0594,204.7813 C319.0125,204.7813 317.7156,203.6875 317.7156,201.9844 L317.7156,200.8906 C317.7156,199.1094 318.9656,197.7969 320.7,197.7969 C321.2781,197.7969 321.8875,197.9531 322.3563,198.2031 C322.8406,198.4844 323.0125,198.7031 323.1063,199.1094 C323.1688,199.5156 323.2,199.6406 323.3406,199.7656 C323.4813,199.9063 323.7156,200.0156 323.9344,200.0156 C324.2,200.0156 324.4656,199.875 324.6375,199.6563 C324.7469,199.5 324.7781,199.3125 324.7781,198.8906 L324.7781,197.4688 C324.7781,197.0313 324.7625,196.9063 324.6688,196.75 C324.5125,196.4844 324.2313,196.3438 323.9344,196.3438 C323.6375,196.3438 323.4344,196.4375 323.2156,196.75 L323.0438,196.6719 Z " fill="#000000"/><text fill="#000000" font-family="sans-serif" font-size="12" lengthAdjust="spacing" textLength="75" x="336.3" y="205.1543">VentaTarjeta</text><line style="stroke:#A80036;stroke-width:1.5;" x1="299.5" x2="420.5" y1="217" y2="217"/><text fill="#000000" font-family="sans-serif" font-size="11" lengthAdjust="spacing" textLength="111" x="304.5" y="231.2104">Integer cantCuotas,</text><line style="stroke:#A80036;stroke-width:1.5;" x1="299.5" x2="420.5" y1="237.8047" y2="237.8047"/><text fill="#000000" font-family="sans-serif" font-size="11" lengthAdjust="spacing" textLength="66" x="304.5" y="252.0151">valorFinal ()</text><!--MD5=[c31b78c26b0557b0721544f0986aa0be]
class VentaEfectivo--><rect codeLine="41" fill="#FEFECE" filter="url(#f16hgghef9q5nw)" height="60.8047" id="VentaEfectivo" style="stroke:#A80036;stroke-width:1.5;" width="114" x="457" y="191.5"/><ellipse cx="472" cy="207.5" fill="#ADD1B2" rx="11" ry="11" style="stroke:#A80036;stroke-width:1.0;"/><path d="M474.3438,203.1719 C473.4063,202.7344 472.8125,202.5938 471.9375,202.5938 C469.3125,202.5938 467.3125,204.6719 467.3125,207.3906 L467.3125,208.5156 C467.3125,211.0938 469.4219,212.9844 472.3125,212.9844 C473.5313,212.9844 474.6875,212.6875 475.4375,212.1406 C476.0156,211.7344 476.3438,211.2813 476.3438,210.8906 C476.3438,210.4375 475.9531,210.0469 475.4844,210.0469 C475.2656,210.0469 475.0625,210.125 474.875,210.3125 C474.4219,210.7969 474.4219,210.7969 474.2344,210.8906 C473.8125,211.1563 473.125,211.2813 472.3594,211.2813 C470.3125,211.2813 469.0156,210.1875 469.0156,208.4844 L469.0156,207.3906 C469.0156,205.6094 470.2656,204.2969 472,204.2969 C472.5781,204.2969 473.1875,204.4531 473.6563,204.7031 C474.1406,204.9844 474.3125,205.2031 474.4063,205.6094 C474.4688,206.0156 474.5,206.1406 474.6406,206.2656 C474.7813,206.4063 475.0156,206.5156 475.2344,206.5156 C475.5,206.5156 475.7656,206.375 475.9375,206.1563 C476.0469,206 476.0781,205.8125 476.0781,205.3906 L476.0781,203.9688 C476.0781,203.5313 476.0625,203.4063 475.9688,203.25 C475.8125,202.9844 475.5313,202.8438 475.2344,202.8438 C474.9375,202.8438 474.7344,202.9375 474.5156,203.25 L474.3438,203.1719 Z " fill="#000000"/><text fill="#000000" font-family="sans-serif" font-size="12" lengthAdjust="spacing" textLength="82" x="486" y="211.6543">VentaEfectivo</text><line style="stroke:#A80036;stroke-width:1.5;" x1="458" x2="570" y1="223.5" y2="223.5"/><line style="stroke:#A80036;stroke-width:1.5;" x1="458" x2="570" y1="231.5" y2="231.5"/><text fill="#000000" font-family="sans-serif" font-size="11" lengthAdjust="spacing" textLength="66" x="463" y="245.7104">valorFinal ()</text><!--MD5=[256cafe7dbdbf7891ac9191609210c86]
class PrendaNueva--><rect codeLine="12" fill="#FEFECE" filter="url(#f16hgghef9q5nw)" height="60.8047" id="PrendaNueva" style="stroke:#A80036;stroke-width:1.5;" width="110" x="7" y="344.5"/><ellipse cx="22" cy="360.5" fill="#ADD1B2" rx="11" ry="11" style="stroke:#A80036;stroke-width:1.0;"/><path d="M24.3438,356.1719 C23.4063,355.7344 22.8125,355.5938 21.9375,355.5938 C19.3125,355.5938 17.3125,357.6719 17.3125,360.3906 L17.3125,361.5156 C17.3125,364.0938 19.4219,365.9844 22.3125,365.9844 C23.5313,365.9844 24.6875,365.6875 25.4375,365.1406 C26.0156,364.7344 26.3438,364.2813 26.3438,363.8906 C26.3438,363.4375 25.9531,363.0469 25.4844,363.0469 C25.2656,363.0469 25.0625,363.125 24.875,363.3125 C24.4219,363.7969 24.4219,363.7969 24.2344,363.8906 C23.8125,364.1563 23.125,364.2813 22.3594,364.2813 C20.3125,364.2813 19.0156,363.1875 19.0156,361.4844 L19.0156,360.3906 C19.0156,358.6094 20.2656,357.2969 22,357.2969 C22.5781,357.2969 23.1875,357.4531 23.6563,357.7031 C24.1406,357.9844 24.3125,358.2031 24.4063,358.6094 C24.4688,359.0156 24.5,359.1406 24.6406,359.2656 C24.7813,359.4063 25.0156,359.5156 25.2344,359.5156 C25.5,359.5156 25.7656,359.375 25.9375,359.1563 C26.0469,359 26.0781,358.8125 26.0781,358.3906 L26.0781,356.9688 C26.0781,356.5313 26.0625,356.4063 25.9688,356.25 C25.8125,355.9844 25.5313,355.8438 25.2344,355.8438 C24.9375,355.8438 24.7344,355.9375 24.5156,356.25 L24.3438,356.1719 Z " fill="#000000"/><text fill="#000000" font-family="sans-serif" font-size="12" lengthAdjust="spacing" textLength="78" x="36" y="364.6543">PrendaNueva</text><line style="stroke:#A80036;stroke-width:1.5;" x1="8" x2="116" y1="376.5" y2="376.5"/><line style="stroke:#A80036;stroke-width:1.5;" x1="8" x2="116" y1="384.5" y2="384.5"/><text fill="#000000" font-family="sans-serif" font-size="11" lengthAdjust="spacing" textLength="47" x="13" y="398.7104">precio ()</text><!--MD5=[77d7b7e9f1d39a5dae790c35a9a77677]
class PrendaPromo--><rect codeLine="16" fill="#FEFECE" filter="url(#f16hgghef9q5nw)" height="73.6094" id="PrendaPromo" style="stroke:#A80036;stroke-width:1.5;" width="111" x="152.5" y="338"/><ellipse cx="167.5" cy="354" fill="#ADD1B2" rx="11" ry="11" style="stroke:#A80036;stroke-width:1.0;"/><path d="M169.8438,349.6719 C168.9063,349.2344 168.3125,349.0938 167.4375,349.0938 C164.8125,349.0938 162.8125,351.1719 162.8125,353.8906 L162.8125,355.0156 C162.8125,357.5938 164.9219,359.4844 167.8125,359.4844 C169.0313,359.4844 170.1875,359.1875 170.9375,358.6406 C171.5156,358.2344 171.8438,357.7813 171.8438,357.3906 C171.8438,356.9375 171.4531,356.5469 170.9844,356.5469 C170.7656,356.5469 170.5625,356.625 170.375,356.8125 C169.9219,357.2969 169.9219,357.2969 169.7344,357.3906 C169.3125,357.6563 168.625,357.7813 167.8594,357.7813 C165.8125,357.7813 164.5156,356.6875 164.5156,354.9844 L164.5156,353.8906 C164.5156,352.1094 165.7656,350.7969 167.5,350.7969 C168.0781,350.7969 168.6875,350.9531 169.1563,351.2031 C169.6406,351.4844 169.8125,351.7031 169.9063,352.1094 C169.9688,352.5156 170,352.6406 170.1406,352.7656 C170.2813,352.9063 170.5156,353.0156 170.7344,353.0156 C171,353.0156 171.2656,352.875 171.4375,352.6563 C171.5469,352.5 171.5781,352.3125 171.5781,351.8906 L171.5781,350.4688 C171.5781,350.0313 171.5625,349.9063 171.4688,349.75 C171.3125,349.4844 171.0313,349.3438 170.7344,349.3438 C170.4375,349.3438 170.2344,349.4375 170.0156,349.75 L169.8438,349.6719 Z " fill="#000000"/><text fill="#000000" font-family="sans-serif" font-size="12" lengthAdjust="spacing" textLength="79" x="181.5" y="358.1543">PrendaPromo</text><line style="stroke:#A80036;stroke-width:1.5;" x1="153.5" x2="262.5" y1="370" y2="370"/><text fill="#000000" font-family="sans-serif" font-size="11" lengthAdjust="spacing" textLength="81" x="158.5" y="384.2104">Float valorFijo,</text><line style="stroke:#A80036;stroke-width:1.5;" x1="153.5" x2="262.5" y1="390.8047" y2="390.8047"/><text fill="#000000" font-family="sans-serif" font-size="11" lengthAdjust="spacing" textLength="47" x="158.5" y="405.0151">precio ()</text><!--MD5=[97a131056d5174639eac1525f27e1919]
class PrendaLiquidacion--><rect codeLine="22" fill="#FEFECE" filter="url(#f16hgghef9q5nw)" height="60.8047" id="PrendaLiquidacion" style="stroke:#A80036;stroke-width:1.5;" width="140" x="299" y="344.5"/><ellipse cx="314" cy="360.5" fill="#ADD1B2" rx="11" ry="11" style="stroke:#A80036;stroke-width:1.0;"/><path d="M316.3438,356.1719 C315.4063,355.7344 314.8125,355.5938 313.9375,355.5938 C311.3125,355.5938 309.3125,357.6719 309.3125,360.3906 L309.3125,361.5156 C309.3125,364.0938 311.4219,365.9844 314.3125,365.9844 C315.5313,365.9844 316.6875,365.6875 317.4375,365.1406 C318.0156,364.7344 318.3438,364.2813 318.3438,363.8906 C318.3438,363.4375 317.9531,363.0469 317.4844,363.0469 C317.2656,363.0469 317.0625,363.125 316.875,363.3125 C316.4219,363.7969 316.4219,363.7969 316.2344,363.8906 C315.8125,364.1563 315.125,364.2813 314.3594,364.2813 C312.3125,364.2813 311.0156,363.1875 311.0156,361.4844 L311.0156,360.3906 C311.0156,358.6094 312.2656,357.2969 314,357.2969 C314.5781,357.2969 315.1875,357.4531 315.6563,357.7031 C316.1406,357.9844 316.3125,358.2031 316.4063,358.6094 C316.4688,359.0156 316.5,359.1406 316.6406,359.2656 C316.7813,359.4063 317.0156,359.5156 317.2344,359.5156 C317.5,359.5156 317.7656,359.375 317.9375,359.1563 C318.0469,359 318.0781,358.8125 318.0781,358.3906 L318.0781,356.9688 C318.0781,356.5313 318.0625,356.4063 317.9688,356.25 C317.8125,355.9844 317.5313,355.8438 317.2344,355.8438 C316.9375,355.8438 316.7344,355.9375 316.5156,356.25 L316.3438,356.1719 Z " fill="#000000"/><text fill="#000000" font-family="sans-serif" font-size="12" lengthAdjust="spacing" textLength="108" x="328" y="364.6543">PrendaLiquidacion</text><line style="stroke:#A80036;stroke-width:1.5;" x1="300" x2="438" y1="376.5" y2="376.5"/><line style="stroke:#A80036;stroke-width:1.5;" x1="300" x2="438" y1="384.5" y2="384.5"/><text fill="#000000" font-family="sans-serif" font-size="11" lengthAdjust="spacing" textLength="47" x="305" y="398.7104">precio ()</text><!--MD5=[cef3ebf36fa84cf8c1eebbacd2caa972]
reverse link Venta to Prenda--><path codeLine="1" d="M311.077,110.124 C294.485,127.972 275.911,147.951 259.149,165.981 " fill="none" id="Venta-backto-Prenda" style="stroke:#A80036;stroke-width:1.0;"/><polygon fill="#A80036" points="314.807,106.113,305.75,109.9823,311.4031,109.7754,311.6099,115.4285,314.807,106.113" style="stroke:#A80036;stroke-width:1.0;"/><!--MD5=[a27194e573f73ec697c08b548b4d9b6b]
reverse link Venta to VentaTarjeta--><path codeLine="3" d="M360,126.426 C360,146.486 360,167.602 360,184.781 " fill="none" id="Venta-backto-VentaTarjeta" style="stroke:#A80036;stroke-width:1.0;"/><polygon fill="none" points="353,126.113,360,106.113,367,126.113,353,126.113" style="stroke:#A80036;stroke-width:1.0;"/><!--MD5=[b21853c7b0b6c2adbaffad0a3b268d3c]
reverse link Venta to VentaEfectivo--><path codeLine="4" d="M419.661,120.841 C442.511,145.101 467.51,171.642 486.029,191.304 " fill="none" id="Venta-backto-VentaEfectivo" style="stroke:#A80036;stroke-width:1.0;"/><polygon fill="none" points="414.405,125.471,405.788,106.113,424.597,115.872,414.405,125.471" style="stroke:#A80036;stroke-width:1.0;"/><!--MD5=[1a6a386f4bec6c2e115a00233412f801]
reverse link Prenda to PrendaNueva--><path codeLine="6" d="M140.515,292.796 C122.908,311.006 104.8712,329.6606 90.5321,344.4907 " fill="none" id="Prenda-backto-PrendaNueva" style="stroke:#A80036;stroke-width:1.0;"/><polygon fill="none" points="135.53,287.882,154.464,278.369,145.594,297.613,135.53,287.882" style="stroke:#A80036;stroke-width:1.0;"/><!--MD5=[775874e0e4dbcf781f44fc7433c27710]
reverse link Prenda to PrendaPromo--><path codeLine="7" d="M208,298.838 C208,312.4689 208,326.0853 208,337.9097 " fill="none" id="Prenda-backto-PrendaPromo" style="stroke:#A80036;stroke-width:1.0;"/><polygon fill="none" points="201,298.369,208,278.369,215,298.369,201,298.369" style="stroke:#A80036;stroke-width:1.0;"/><!--MD5=[563fe8154468868fa98ce35db5b2125f]
reverse link Prenda to PrendaLiquidacion--><path codeLine="8" d="M278.226,288.864 C298.91,308.264 320.515,328.5264 337.456,344.4149 " fill="none" id="Prenda-backto-PrendaLiquidacion" style="stroke:#A80036;stroke-width:1.0;"/><polygon fill="none" points="273.206,293.753,263.407,274.966,282.784,283.542,273.206,293.753" style="stroke:#A80036;stroke-width:1.0;"/><!--MD5=[07d8b093a691990ee98635b22d82a0e8]
@startuml
Venta <- - Prenda

Venta <|- - VentaTarjeta
Venta <|- - VentaEfectivo

Prenda <|- - PrendaNueva
Prenda <|- - PrendaPromo
Prenda <|- - PrendaLiquidacion



class PrendaNueva {
  precio ()
}

class PrendaPromo {
  Float valorFijo,

  precio ()
}

class PrendaLiquidacion {
  precio ()
}

class Prenda {
  Float precioBase,
  Integer cantidad,
  String tipo,
  var estado, 

  precio ()
}

class VentaTarjeta {
  Integer cantCuotas,

  valorFinal ()
}

class VentaEfectivo {
   valorFinal ()
}

class Venta {
 arraylist <Prenda> prendas[],
 var formaPago,
 Date fechaVenta,
 
 valorFinal ()
}
@enduml

PlantUML version 1.2021.5beta3(Unknown compile time)
(GPL source distribution)
Java Runtime: Java(TM) SE Runtime Environment
JVM: Java HotSpot(TM) 64-Bit Server VM
Default Encoding: UTF-8
Language: en
Country: US
--></g></svg>